<svg width="144" height="17" viewBox="0 0 144 17" fill="none" xmlns="http://www.w3.org/2000/svg">
<path d="M33.5606 6.16663H21.4114L20.9761 6.4953V16.6653H24.3184V12.837L24.6248 12.5515H33.5606C35.8203 12.5515 36.8599 11.9777 36.8599 10.5067V8.16829C36.8599 6.73776 35.8203 6.16663 33.5606 6.16663ZM33.5606 9.9248C33.5606 10.6199 33.0823 10.733 31.9968 10.733H24.6821L24.3327 10.4474V8.29222L24.6392 8.00665H32.0197C33.0622 8.00665 33.5835 8.12788 33.5835 8.81486V9.91672L33.5606 9.9248Z" fill="white"/>
<path d="M43.0348 8.08749L45.9446 12.0908L45.7699 12.4599H39.343L37.6934 14.378H47.2477L47.9408 14.7471L49.4187 16.6653H53.2822L44.8162 6.04541" fill="white"/>
<path d="M81.3783 14.6232V11.7649L81.7277 11.4793H88.1975V9.68237H77.9501V16.6653H93.0606V14.8684H81.7707" fill="white"/>
<path d="M93.1924 6.16934H77.9501V8.1306H93.1924V6.16934Z" fill="white"/>
<path d="M60.972 8.04708H73.2615C73.0868 6.57614 72.0873 6.16125 69.6557 6.16125H60.8403C58.0622 6.16125 57.1915 6.65157 57.1915 8.65323V14.2137C57.1915 16.175 58.0507 16.7057 60.8403 16.7057H69.6472C72.1217 16.7057 73.084 16.2558 73.1642 14.7444H60.9634L60.614 14.4185V8.29223" fill="white"/>
<path d="M12.7248 10.2508H3.82346L3.56284 9.96522V8.1683L3.82346 7.96355H15.8523L16.0242 7.59716C15.6347 6.61653 14.5492 6.12622 12.5874 6.12622H4.21297C1.43487 6.12622 0.567076 6.61653 0.567076 8.6182V9.80357C0.567076 11.7621 1.42628 12.2956 4.21297 12.2956H13.1172L13.3778 12.5407V14.4265L13.1602 14.7121H0.30645C0.30645 14.7121 0 14.8764 0 14.9168C0.217665 16.307 1.21721 16.6734 3.6058 16.6734H12.7248C15.5029 16.6734 16.4166 16.183 16.4166 14.1814V12.7428C16.4166 10.7842 15.5029 10.2508 12.7248 10.2508Z" fill="white"/>
<path d="M102.79 6.12622H97.7518L97.4912 6.61653L103.05 10.4555C104.093 9.88439 105.264 9.31326 106.487 8.73943" fill="white"/>
<path d="M107.306 13.3166L112.212 16.6653H117.25L117.468 16.2154L110.173 11.191C109.217 11.8861 108.217 12.5811 107.309 13.3166" fill="white"/>
<path d="M102.051 16.6653H97.4913L97.1018 16.0941C100.183 13.2735 114 1.27697 144 0C144 0 118.857 0.808209 102.051 16.6653Z" fill="#B2B0B2"/>
</svg>
